<svg width="168" height="168" viewBox="0 0 168 168" fill="none" xmlns="http://www.w3.org/2000/svg">
<path d="M57.75 7.875C57.75 3.51094 54.2391 0 49.875 0C45.5109 0 42 3.51094 42 7.875V21C30.4172 21 21 30.4172 21 42H7.875C3.51094 42 0 45.5109 0 49.875C0 54.2391 3.51094 57.75 7.875 57.75H21V76.125H7.875C3.51094 76.125 0 79.6359 0 84C0 88.3641 3.51094 91.875 7.875 91.875H21V110.25H7.875C3.51094 110.25 0 113.761 0 118.125C0 122.489 3.51094 126 7.875 126H21C21 137.583 30.4172 147 42 147V160.125C42 164.489 45.5109 168 49.875 168C54.2391 168 57.75 164.489 57.75 160.125V147H76.125V160.125C76.125 164.489 79.6359 168 84 168C88.3641 168 91.875 164.489 91.875 160.125V147H110.25V160.125C110.25 164.489 113.761 168 118.125 168C122.489 168 126 164.489 126 160.125V147C137.583 147 147 137.583 147 126H160.125C164.489 126 168 122.489 168 118.125C168 113.761 164.489 110.25 160.125 110.25H147V91.875H160.125C164.489 91.875 168 88.3641 168 84C168 79.6359 164.489 76.125 160.125 76.125H147V57.75H160.125C164.489 57.75 168 54.2391 168 49.875C168 45.5109 164.489 42 160.125 42H147C147 30.4172 137.583 21 126 21V7.875C126 3.51094 122.489 0 118.125 0C113.761 0 110.25 3.51094 110.25 7.875V21H91.875V7.875C91.875 3.51094 88.3641 0 84 0C79.6359 0 76.125 3.51094 76.125 7.875V21H57.75V7.875ZM52.5 42H115.5C121.308 42 126 46.6922 126 52.5V115.5C126 121.308 121.308 126 115.5 126H52.5C46.6922 126 42 121.308 42 115.5V52.5C42 46.6922 46.6922 42 52.5 42ZM57.75 57.75V110.25H110.25V57.75H57.75Z" fill="url(#paint0_linear_7175_1550)"/>
<defs>
<linearGradient id="paint0_linear_7175_1550" x1="0" y1="0" x2="183.186" y2="18.6225" gradientUnits="userSpaceOnUse">
<stop stop-color="#C7CE01"/>
<stop offset="0.5" stop-color="#2BCA23"/>
<stop offset="1" stop-color="#009898"/>
</linearGradient>
</defs>
</svg>
