<svg width="168" height="153" viewBox="0 0 168 153" fill="none" xmlns="http://www.w3.org/2000/svg">
<path d="M105.217 0.374689C100.259 -1.08926 95.097 1.86851 93.6679 6.94752L56.3378 140.794C54.9088 145.873 57.796 151.161 62.7539 152.625C67.7118 154.089 72.8739 151.131 74.3029 146.052L111.633 12.2058C113.062 7.12678 110.175 1.83864 105.217 0.374689ZM124.057 41.0366C120.411 44.7712 120.411 50.8361 124.057 54.5707L145.463 76.5L124.057 98.4294C120.411 102.164 120.411 108.229 124.057 111.963C127.702 115.698 133.623 115.698 137.268 111.963L165.266 83.282C168.911 79.5474 168.911 73.4825 165.266 69.7479L137.268 41.0665C133.623 37.3319 127.702 37.3319 124.057 41.0665V41.0366ZM43.9431 41.0366C40.2975 37.302 34.3772 37.302 30.7317 41.0366L2.73414 69.718C-0.911379 73.4526 -0.911379 79.5175 2.73414 83.2521L30.7317 111.934C34.3772 115.668 40.2975 115.668 43.9431 111.934C47.5886 108.199 47.5886 102.134 43.9431 98.3995L22.5366 76.5L43.9139 54.5707C47.5594 50.8361 47.5594 44.7712 43.9139 41.0366H43.9431Z" fill="url(#paint0_linear_7197_194)"/>
<defs>
<linearGradient id="paint0_linear_7197_194" x1="0" y1="0" x2="191.914" y2="40.9632" gradientUnits="userSpaceOnUse">
<stop stop-color="#35D0C3"/>
<stop offset="0.5" stop-color="#239ECA"/>
<stop offset="1" stop-color="#1635D2"/>
</linearGradient>
</defs>
</svg>
