<svg xmlns="http://www.w3.org/2000/svg" viewBox="0 0 167 140"><path fill-rule="evenodd" fill="#111827" d="M102 .4l1.2.3a10 10 0 0 1 6.8 12.2L75.6 133a9.8 9.8 0 0 1-12.2 6.7l-1.2-.3a9.9 9.9 0 0 1-6.8-12.2L89.8 7c1.5-5 7-8 12.2-6.6zM45.8 35c4 4 4 10.5.2 14.6l-.2.3-20.5 20.4 20.5 20.4.2.3a10.5 10.5 0 0 1-14.6 15l-.3-.2-.2-.2L3.1 77.8l-.3-.3a10.7 10.7 0 0 1 0-14.4l.3-.3L30.9 35a10.5 10.5 0 0 1 14.9 0zm90.3 0l27.8 27.8c2 2 3.1 4.8 3.1 7.5 0 2.6-1 5.2-2.8 7.2l-.3.3-27.8 27.8-.2.2A10.5 10.5 0 0 1 121 91l.2-.3 20.5-20.4-20.5-20.4a10.5 10.5 0 0 1 14.9-15z"/></svg>