<svg width="95" height="99" viewBox="0 0 95 99" fill="none" xmlns="http://www.w3.org/2000/svg">
<path d="M78.9735 52.316C78.9233 44.2045 83.089 38.0821 91.5209 33.5733C86.8031 27.6278 79.6761 24.3567 70.2656 23.7157C61.3569 23.0968 51.6201 28.2909 48.0566 28.2909C44.2924 28.2909 35.6598 23.9367 28.8842 23.9367C14.8812 24.1356 0 33.7722 0 53.3769C0 59.1677 1.20455 65.1574 3.61366 71.3239C6.8258 79.4354 18.4196 99.3274 30.5153 98.9959C36.8392 98.8633 41.3061 95.0396 49.5372 95.0396C57.5174 95.0396 61.658 98.9959 68.7097 98.9959C80.9058 98.8412 91.3954 80.7616 94.457 72.6279C78.0952 65.8426 78.9735 52.7359 78.9735 52.316ZM64.7698 16.0241C71.6207 8.863 70.9933 2.34284 70.7926 0C64.7447 0.309431 57.7432 3.62476 53.7532 7.71368C49.3616 12.0899 46.7768 17.505 47.3289 23.6052C53.8786 24.0472 59.8512 21.0855 64.7698 16.0241Z" fill="white"/>
</svg>
